<?xml version="1.0" encoding="utf-8"?>
<!-- Generator: Adobe Illustrator 16.0.0, SVG Export Plug-In . SVG Version: 6.00 Build 0)  -->
<!DOCTYPE svg PUBLIC "-//W3C//DTD SVG 1.1//EN" "http://www.w3.org/Graphics/SVG/1.1/DTD/svg11.dtd">
<svg version="1.1" id="Layer_1" xmlns="http://www.w3.org/2000/svg" xmlns:xlink="http://www.w3.org/1999/xlink" x="0px" y="0px"
	 width="151px" height="21px" viewBox="0 0 151 21" enable-background="new 0 0 151 21" xml:space="preserve">
<g id="bv_logo_color_white">
	<path fill="#75B648" d="M11.384,0.083c-6.098,0-11.042,4.944-11.042,11.042c0,4.171,2.311,7.799,5.721,9.678L5.57,14.089
		c0-1.036,0.87-1.875,1.942-1.875h7.745c1.072,0,1.942,0.839,1.942,1.875l-0.493,6.713c3.41-1.879,5.721-5.507,5.721-9.678
		C22.427,5.027,17.483,0.083,11.384,0.083z M11.384,11.421c-2.583,0-4.676-2.094-4.676-4.676c0-2.582,2.093-4.675,4.676-4.675
		s4.676,2.093,4.676,4.675C16.06,9.327,13.967,11.421,11.384,11.421z"/>
	<path fill="#FFFFFF" d="M25.519,4.391c0-0.64,0.313-1.137,1.05-1.137h3.461c2.813,0,4.288,2.107,4.288,4.025
		c0,1.847-0.916,3.268-2.21,3.694v0.047c1.92,0.213,3.438,1.941,3.438,4.167c0,2.652-1.854,4.926-5.203,4.926h-3.774
		c-0.737,0-1.05-0.498-1.05-1.137V4.391z M27.484,10.381h2.233c1.675,0,2.635-1.184,2.635-2.723c0-1.515-0.826-2.604-2.568-2.604
		h-2.3V10.381z M27.484,18.312h2.769c1.92,0,3.327-1.253,3.327-3.125c0-1.729-1.184-3.102-3.238-3.102h-2.858V18.312z"/>
	<path fill="#FFFFFF" d="M38.139,14.619c0,2.155,1.295,3.837,3.506,3.837c2.613,0,3.283-1.706,4.019-1.706
		c0.357,0,0.714,0.332,0.714,0.924c0,1.018-2.434,2.581-4.756,2.581c-3.796,0-5.449-3.102-5.449-6.44c0-3.409,2.01-6.44,5.337-6.44
		c3.238,0,5.113,3.102,5.113,6.133c0,0.733-0.246,1.112-1.094,1.112H38.139z M44.659,13.056c0-1.799-0.982-3.882-3.148-3.882
		c-2.434-0.095-3.305,1.964-3.372,3.882H44.659z"/>
	<path fill="#FFFFFF" d="M49.129,14.619c0,2.155,1.295,3.837,3.505,3.837c2.612,0,3.283-1.706,4.019-1.706
		c0.358,0,0.715,0.332,0.715,0.924c0,1.018-2.434,2.581-4.756,2.581c-3.796,0-5.448-3.102-5.448-6.44c0-3.409,2.01-6.44,5.337-6.44
		c3.238,0,5.113,3.102,5.113,6.133c0,0.733-0.246,1.112-1.094,1.112H49.129z M55.649,13.056c0-1.799-0.982-3.882-3.148-3.882
		c-2.435-0.095-3.305,1.964-3.372,3.882H55.649z"/>
	<path fill="#FFFFFF" d="M58.558,8.487c0-0.687,0.379-1.113,0.982-1.113c0.603,0,0.982,0.427,0.982,1.113v0.497l0.044,0.047
		c0.871-1.184,2.099-1.658,3.283-1.658c1.831,0,4.13,1.231,4.13,4.783v6.984c0,0.688-0.379,1.113-0.982,1.113
		c-0.602,0-0.982-0.426-0.982-1.113v-6.866c0-2.202-1.451-3.102-2.747-3.102c-1.295,0-2.746,0.899-2.746,3.102v6.866
		c0,0.688-0.38,1.113-0.982,1.113c-0.603,0-0.982-0.426-0.982-1.113V8.487z"/>
	<path fill="#75B648" d="M68.101,5.693c-0.111-0.308-0.155-0.544-0.155-0.876c0-0.994,0.826-1.705,1.719-1.705
		c0.76,0,1.229,0.521,1.519,1.16l3.461,9.851l3.46-9.851c0.292-0.639,0.76-1.16,1.52-1.16c0.894,0,1.719,0.711,1.719,1.705
		c0,0.332-0.044,0.568-0.155,0.876l-4.891,13.189c-0.292,0.757-0.671,1.373-1.653,1.373c-0.982,0-1.362-0.616-1.652-1.373
		L68.101,5.693z"/>
	<path fill="#75B648" d="M82.911,14.951c0.225,1.683,1.54,2.463,3.037,2.463c1.651,0,2.79-1.373,3.639-1.373
		c0.693,0,1.318,0.733,1.318,1.467c0,1.469-2.857,2.89-5.248,2.89c-3.617,0-6.029-2.793-6.029-6.56c0-3.457,2.367-6.606,5.762-6.606
		c3.483,0,5.783,3.362,5.783,6.204c0,1.018-0.423,1.516-1.407,1.516H82.911z M87.957,12.677c-0.177-1.491-1.072-2.604-2.567-2.604
		c-1.429,0-2.39,1.16-2.545,2.604H87.957z"/>
	<path fill="#75B648" d="M92.266,9.079c0-1.137,0.849-1.705,1.652-1.705c0.849,0,1.563,0.332,1.563,1.421h0.043
		c0.604-0.947,1.251-1.421,2.257-1.421c0.781,0,1.563,0.593,1.563,1.824c0,1.113-0.961,1.184-1.921,1.656
		c-0.96,0.474-1.942,0.924-1.942,2.274v5.232c0,1.137-0.67,1.895-1.606,1.895c-0.938,0-1.609-0.758-1.609-1.895V9.079z"/>
	<path fill="#75B648" d="M103.115,4.13c0,1.065-0.801,1.965-1.807,1.965c-0.961,0-1.81-0.923-1.81-1.965
		c0-0.971,0.849-1.87,1.81-1.87C102.269,2.26,103.115,3.136,103.115,4.13z M99.701,9.268c0-1.136,0.669-1.894,1.607-1.894
		s1.606,0.758,1.606,1.894v9.092c0,1.137-0.668,1.895-1.606,1.895s-1.607-0.758-1.607-1.895V9.268z"/>
	<path fill="#75B648" d="M105.438,10.5h-0.714c-0.871,0-1.407-0.568-1.407-1.492c0-0.853,0.602-1.492,1.407-1.492h0.714V5.764
		c0-2.51,1.407-3.883,3.371-3.883c1.141,0,2.234,0.355,2.234,1.54c0,0.994-0.426,1.444-1.317,1.444c-0.536,0-1.072,0-1.072,1.255
		v1.397h1.005c0.959,0,1.63,0.402,1.63,1.492c0,1.065-0.692,1.492-1.63,1.492h-1.005v7.861c0,1.137-0.67,1.895-1.608,1.895
		s-1.607-0.758-1.607-1.895V10.5z"/>
	<path fill="#75B648" d="M115.303,4.13c0,1.065-0.806,1.965-1.81,1.965c-0.96,0-1.809-0.923-1.809-1.965
		c0-0.971,0.849-1.87,1.809-1.87C114.454,2.26,115.303,3.136,115.303,4.13z M111.887,9.268c0-1.136,0.668-1.894,1.606-1.894
		s1.607,0.758,1.607,1.894v9.092c0,1.137-0.669,1.895-1.607,1.895s-1.606-0.758-1.606-1.895V9.268z"/>
	<path fill="#75B648" d="M119.478,14.951c0.224,1.683,1.541,2.463,3.036,2.463c1.653,0,2.792-1.373,3.64-1.373
		c0.691,0,1.317,0.733,1.317,1.467c0,1.469-2.859,2.89-5.248,2.89c-3.617,0-6.029-2.793-6.029-6.56c0-3.457,2.369-6.606,5.761-6.606
		c3.484,0,5.786,3.362,5.786,6.204c0,1.018-0.427,1.516-1.406,1.516H119.478z M124.523,12.677c-0.18-1.491-1.072-2.604-2.569-2.604
		c-1.428,0-2.388,1.16-2.545,2.604H124.523z"/>
	<path fill="#FFFFFF" d="M144.513,19.945c0-0.299,0.243-0.544,0.543-0.544s0.543,0.245,0.543,0.544c0,0.301-0.243,0.545-0.543,0.545
		S144.513,20.246,144.513,19.945z"/>
	<path fill="#FFFFFF" d="M142.838,16.229c0,0.25-0.194,0.475-0.194,0.795c0,0.571,0.508,0.844,1.023,0.844
		c0.496,0,1.011-0.3,1.011-0.844c0-0.251-0.208-0.629-0.208-0.746c0-0.236,0.202-0.432,0.439-0.432c0.516,0,0.689,0.864,0.689,1.227
		c0,1.08-0.886,1.8-1.932,1.8c-1.018,0-1.946-0.74-1.946-1.8c0-0.398,0.146-1.227,0.637-1.227
		C142.566,15.846,142.838,15.99,142.838,16.229z"/>
	<path fill="#FFFFFF" d="M143.667,12.044c1.046,0,1.932,0.718,1.932,1.799c0,1.082-0.886,1.799-1.932,1.799
		c-1.018,0-1.946-0.738-1.946-1.799C141.721,12.783,142.649,12.044,143.667,12.044z M143.667,14.638
		c0.482,0,1.011-0.251,1.011-0.795s-0.528-0.796-1.011-0.796c-0.48,0-1.023,0.244-1.023,0.796S143.187,14.638,143.667,14.638z"/>
	<path fill="#FFFFFF" d="M142.321,11.618c-0.335,0-0.557-0.209-0.557-0.502c0-0.258,0.139-0.426,0.376-0.46
		c-0.266-0.244-0.42-0.565-0.42-0.935c0-0.418,0.174-0.774,0.51-1.039c-0.321-0.279-0.51-0.718-0.51-1.061
		c0-0.815,0.477-1.374,1.353-1.374H145c0.334,0,0.558,0.209,0.558,0.502c0,0.293-0.224,0.502-0.558,0.502h-1.75
		c-0.404,0-0.691,0.224-0.691,0.586c0,0.37,0.287,0.593,0.691,0.593H145c0.334,0,0.558,0.209,0.558,0.502S145.334,9.436,145,9.436
		h-1.75c-0.404,0-0.691,0.223-0.691,0.585c0,0.412,0.287,0.593,0.691,0.593H145c0.334,0,0.558,0.208,0.558,0.502
		c0,0.293-0.224,0.502-0.558,0.502H142.321z"/>
	<linearGradient id="SVGID_1_" gradientUnits="userSpaceOnUse" x1="12.856" y1="19.7363" x2="12.856" y2="14.3928">
		<stop  offset="0" style="stop-color:#68A542"/>
		<stop  offset="1" style="stop-color:#74B64A"/>
	</linearGradient>
	<polygon fill="url(#SVGID_1_)" points="14.135,17.783 16.093,16.369 13.602,16.369 12.856,14.393 12.11,16.369 9.619,16.369 
		11.577,17.784 10.618,20.326 12.856,18.709 15.094,20.326 	"/>
	<path fill="#75B648" d="M138.255,1.881c-0.937,0-1.607,0.758-1.607,1.895v4.641c-0.849-0.782-1.944-1.184-3.059-1.184
		c-3.462,0-5.183,3.434-5.183,6.749c0,3.219,2.056,6.417,5.293,6.417c1.094,0,2.345-0.521,2.948-1.562
		c0.2,0.898,0.715,1.42,1.607,1.42c0.938,0,1.607-0.758,1.607-1.895V3.775C139.862,2.639,139.192,1.881,138.255,1.881z
		 M135.529,13.938l1.051,2.787l-2.453-1.772l-2.455,1.772l1.05-2.787l-2.147-1.551h2.732l0.82-2.168l0.817,2.168h2.729
		L135.529,13.938z"/>
	<g>
		<path fill="#FFFFFF" d="M148.575,2.265v0.34h-0.574v1.579h-0.404V2.605h-0.577v-0.34H148.575z"/>
		<path fill="#FFFFFF" d="M150.081,2.265h0.577v1.919h-0.373V2.887c0-0.038,0-0.089,0.002-0.157c0-0.067,0-0.119,0-0.156
			l-0.363,1.611h-0.389l-0.361-1.611c0,0.037,0,0.089,0,0.156c0.002,0.068,0.002,0.12,0.002,0.157v1.298h-0.372V2.265h0.583
			l0.349,1.509L150.081,2.265z"/>
	</g>
</g>
</svg>
